<svg id="Component_41_1" data-name="Component 41 – 1" xmlns="http://www.w3.org/2000/svg" xmlns:xlink="http://www.w3.org/1999/xlink" width="167.707" height="48.713" viewBox="0 0 167.707 48.713">
  <defs>
    <linearGradient id="linear-gradient" x1="0.703" y1="1.311" x2="0.195" y2="-0.721" gradientUnits="objectBoundingBox">
      <stop offset="0" stop-color="#fff" stop-opacity="0"/>
      <stop offset="0.297" stop-color="#fff" stop-opacity="0.102"/>
      <stop offset="0.433" stop-color="#fff" stop-opacity="0.251"/>
      <stop offset="0.728" stop-color="#fff" stop-opacity="0.627"/>
      <stop offset="1" stop-color="#fff"/>
    </linearGradient>
  </defs>
  <g id="Group_2636" data-name="Group 2636" transform="translate(62.896 8.667)">
    <path id="Path_1345" data-name="Path 1345" d="M8.453-65.348v-15.5h3.765v6.276h5.695v-6.276h3.742v15.5H17.913v-6.159H12.219v6.159Zm21.477,0v-6.694l-5.88-8.809h4.625l4.416,7.414H31.348l4.021-7.414h3.742l-5.95,9.739.535-2v7.763Zm16.247.325a17.785,17.785,0,0,1-2.138-.116,11.5,11.5,0,0,1-1.766-.349,9.766,9.766,0,0,1-1.581-.6v-3.579a7.591,7.591,0,0,0,2.417,1.3,8.219,8.219,0,0,0,2.557.442,2.8,2.8,0,0,0,1.639-.407,1.426,1.426,0,0,0,.569-1.243,1.2,1.2,0,0,0-.523-1.011,5.111,5.111,0,0,0-1.383-.674q-.86-.291-1.929-.662a8.773,8.773,0,0,1-1.325-.535,4.584,4.584,0,0,1-1.162-.825,3.661,3.661,0,0,1-.813-1.22,4.572,4.572,0,0,1-.3-1.766,4.957,4.957,0,0,1,.349-1.836,4.4,4.4,0,0,1,1.081-1.581,5.211,5.211,0,0,1,1.871-1.1,7.948,7.948,0,0,1,2.673-.407,10.852,10.852,0,0,1,1.685.116,9.084,9.084,0,0,1,1.406.337,10.108,10.108,0,0,1,1.371.569v3.626a8.783,8.783,0,0,0-1.2-.825,8.282,8.282,0,0,0-1.383-.639,4.923,4.923,0,0,0-1.511-.279,4.2,4.2,0,0,0-1.278.139,1.863,1.863,0,0,0-.906.523,1.318,1.318,0,0,0-.325.918,1.337,1.337,0,0,0,.4,1.023,3.042,3.042,0,0,0,1.092.616q.7.244,1.557.523a16.493,16.493,0,0,1,1.755.616,5.4,5.4,0,0,1,1.406.848,3.41,3.41,0,0,1,.93,1.255,4.449,4.449,0,0,1,.325,1.79,5.079,5.079,0,0,1-.651,2.545A4.619,4.619,0,0,1,49.2-65.686,6.312,6.312,0,0,1,46.177-65.023Zm7.112-.325,5.857-15.5H63.26l5.485,15.5H64.887l-4.951-14.62,1.836-.163L56.845-65.348Zm3.3-3.347.767-2.766H64.4l.349,2.766Zm14.364,3.347v-15.5h6.578a9.014,9.014,0,0,1,2.94.43,3.941,3.941,0,0,1,1.941,1.371,4.1,4.1,0,0,1,.7,2.5,2.766,2.766,0,0,1-.511,1.72,4,4,0,0,1-1.232,1.081,9.447,9.447,0,0,1-1.348.639l-.418-.814a5.462,5.462,0,0,1,2.243.523,3.7,3.7,0,0,1,1.511,1.325,3.676,3.676,0,0,1,.546,2.034,4.306,4.306,0,0,1-.779,2.661,4.6,4.6,0,0,1-2.08,1.534,7.982,7.982,0,0,1-2.882.5Zm3.765-2.905H77.88a3.157,3.157,0,0,0,1.069-.174,1.605,1.605,0,0,0,.79-.6,1.965,1.965,0,0,0,.3-1.15,1.866,1.866,0,0,0-.186-.883,1.42,1.42,0,0,0-.5-.546,2.314,2.314,0,0,0-.709-.291A3.644,3.644,0,0,0,77.81-72H74.719Zm0-6.508h3.022a1.851,1.851,0,0,0,.744-.151,1.3,1.3,0,0,0,.569-.477,1.506,1.506,0,0,0,.221-.86,1.5,1.5,0,0,0-.511-1.313,2.124,2.124,0,0,0-1.255-.36H74.719Zm10.738,9.413,5.857-15.5h4.114l5.485,15.5H97.056L92.1-79.968l1.836-.163L89.014-65.348Zm3.3-3.347.767-2.766h7.043l.349,2.766Zm16.224,3.347v-12.6h-4.346v-2.905h12.528v2.905h-4.416v12.6Z" transform="translate(-8.351 81.2)" fill="#fff"/>
    <path id="Path_1346" data-name="Path 1346" d="M4.93-32.161v-7.552h.883l2.8,4.291-.555.125,2.955-4.416h.883v7.552h-.815V-38.9h.362L8.327-34.527l-2.876-4.28.294-.419v7.065Zm10.836.17a3.671,3.671,0,0,1-.753-.079,2.264,2.264,0,0,1-.7-.272,1.482,1.482,0,0,1-.521-.526,1.632,1.632,0,0,1-.2-.844,2.1,2.1,0,0,1,.266-1.127,1.5,1.5,0,0,1,.736-.611,2.911,2.911,0,0,1,1.081-.187,4.96,4.96,0,0,1,.8.057,2.881,2.881,0,0,1,.606.164,3.013,3.013,0,0,1,.481.243l.159.747a2.4,2.4,0,0,0-.753-.334A3.9,3.9,0,0,0,15.89-34.9a1.889,1.889,0,0,0-1.1.272.909.909,0,0,0-.385.793.941.941,0,0,0,.232.668,1.259,1.259,0,0,0,.589.351,2.645,2.645,0,0,0,.73.1,4.356,4.356,0,0,0,1.115-.108.47.47,0,0,0,.379-.493v-2.593a1.155,1.155,0,0,0-.385-.962,1.729,1.729,0,0,0-1.1-.306,3.827,3.827,0,0,0-.957.13,2.338,2.338,0,0,0-.866.413v-.815a2.738,2.738,0,0,1,.94-.345,5.772,5.772,0,0,1,1.144-.119,3.053,3.053,0,0,1,.691.074,2.1,2.1,0,0,1,.566.215,1.455,1.455,0,0,1,.425.362,1.648,1.648,0,0,1,.272.51,2.053,2.053,0,0,1,.1.651v2.74a1.093,1.093,0,0,1-.357.894,1.894,1.894,0,0,1-.928.385A7.862,7.862,0,0,1,15.766-31.991Zm4.382-5.367a5.711,5.711,0,0,1,.56-.243,4.586,4.586,0,0,1,.589-.176,5.435,5.435,0,0,1,.611-.1,5.791,5.791,0,0,1,.628-.034,2.965,2.965,0,0,1,1.313.243,1.5,1.5,0,0,1,.708.708,2.593,2.593,0,0,1,.221,1.121v3.68h-.815v-3.68a1.962,1.962,0,0,0-.051-.43,1.222,1.222,0,0,0-.2-.436,1.026,1.026,0,0,0-.453-.34,2.116,2.116,0,0,0-.815-.13,4.834,4.834,0,0,0-.725.057,5.727,5.727,0,0,0-.759.17v4.789h-.815Zm8.447,5.367a3.672,3.672,0,0,1-.753-.079,2.264,2.264,0,0,1-.7-.272,1.482,1.482,0,0,1-.521-.526,1.632,1.632,0,0,1-.2-.844,2.1,2.1,0,0,1,.266-1.127,1.5,1.5,0,0,1,.736-.611,2.911,2.911,0,0,1,1.081-.187,4.96,4.96,0,0,1,.8.057,2.881,2.881,0,0,1,.606.164,3.013,3.013,0,0,1,.481.243l.159.747a2.4,2.4,0,0,0-.753-.334,3.9,3.9,0,0,0-1.081-.142,1.889,1.889,0,0,0-1.1.272.909.909,0,0,0-.385.793.941.941,0,0,0,.232.668,1.259,1.259,0,0,0,.589.351,2.645,2.645,0,0,0,.73.1,4.356,4.356,0,0,0,1.115-.108.47.47,0,0,0,.379-.493v-2.593a1.155,1.155,0,0,0-.385-.962,1.729,1.729,0,0,0-1.1-.306,3.827,3.827,0,0,0-.957.13,2.338,2.338,0,0,0-.866.413v-.815a2.738,2.738,0,0,1,.94-.345,5.772,5.772,0,0,1,1.144-.119,3.053,3.053,0,0,1,.691.074,2.1,2.1,0,0,1,.566.215,1.455,1.455,0,0,1,.425.362,1.648,1.648,0,0,1,.272.51,2.053,2.053,0,0,1,.1.651v2.74a1.093,1.093,0,0,1-.357.894,1.894,1.894,0,0,1-.928.385A7.862,7.862,0,0,1,28.594-31.991Zm6.68,0a2.753,2.753,0,0,1-1.444-.345,2.121,2.121,0,0,1-.855-.985,3.713,3.713,0,0,1-.283-1.512,4.044,4.044,0,0,1,.26-1.579,2.3,2.3,0,0,1,.674-.928,2.357,2.357,0,0,1,.906-.442,4.073,4.073,0,0,1,.957-.119,3.573,3.573,0,0,1,1.013.142,1.855,1.855,0,0,1,.793.447,1.091,1.091,0,0,1,.311.815v4.574a2.469,2.469,0,0,1-.1.691,1.684,1.684,0,0,1-.368.651,1.844,1.844,0,0,1-.747.481,3.571,3.571,0,0,1-1.24.181,4.127,4.127,0,0,1-.894-.091q-.408-.091-.713-.17v-.77q.181.045.413.108t.51.108a3.694,3.694,0,0,0,.594.045,2.631,2.631,0,0,0,1.138-.187.947.947,0,0,0,.481-.464,1.472,1.472,0,0,0,.113-.56v-.827l.283.283a3.254,3.254,0,0,1-.543.215,6.662,6.662,0,0,1-.668.17A3.062,3.062,0,0,1,35.275-31.991Zm0-.747a3.284,3.284,0,0,0,.764-.1,2.781,2.781,0,0,0,.753-.3v-3.25a.627.627,0,0,0-.176-.481.963.963,0,0,0-.47-.226,3.062,3.062,0,0,0-.634-.062,2.02,2.02,0,0,0-1.245.323,1.579,1.579,0,0,0-.566.855,4.275,4.275,0,0,0-.147,1.144,2.638,2.638,0,0,0,.4,1.512A1.484,1.484,0,0,0,35.275-32.738Zm4.246.577v-5.65h.815v5.65Zm-.045-6.658v-.895h.906v.895Zm2.774,1.461a5.711,5.711,0,0,1,.56-.243,4.586,4.586,0,0,1,.589-.176,5.435,5.435,0,0,1,.611-.1,5.791,5.791,0,0,1,.628-.034,2.965,2.965,0,0,1,1.313.243,1.5,1.5,0,0,1,.708.708,2.593,2.593,0,0,1,.221,1.121v3.68h-.815v-3.68a1.962,1.962,0,0,0-.051-.43,1.222,1.222,0,0,0-.2-.436,1.026,1.026,0,0,0-.453-.34,2.116,2.116,0,0,0-.815-.13,4.834,4.834,0,0,0-.725.057,5.728,5.728,0,0,0-.759.17v4.789h-.815Zm8.8,5.367a2.753,2.753,0,0,1-1.444-.345,2.121,2.121,0,0,1-.855-.985,3.713,3.713,0,0,1-.283-1.512,4.044,4.044,0,0,1,.26-1.579,2.3,2.3,0,0,1,.674-.928,2.357,2.357,0,0,1,.906-.442,4.074,4.074,0,0,1,.957-.119,3.573,3.573,0,0,1,1.013.142,1.854,1.854,0,0,1,.793.447,1.091,1.091,0,0,1,.311.815v4.574a2.469,2.469,0,0,1-.1.691,1.685,1.685,0,0,1-.368.651,1.845,1.845,0,0,1-.747.481,3.571,3.571,0,0,1-1.24.181,4.127,4.127,0,0,1-.894-.091q-.408-.091-.713-.17v-.77q.181.045.413.108t.51.108a3.694,3.694,0,0,0,.594.045,2.631,2.631,0,0,0,1.138-.187.947.947,0,0,0,.481-.464,1.472,1.472,0,0,0,.113-.56v-.827l.283.283a3.254,3.254,0,0,1-.543.215,6.661,6.661,0,0,1-.668.17A3.061,3.061,0,0,1,51.047-31.991Zm0-.747a3.284,3.284,0,0,0,.764-.1,2.781,2.781,0,0,0,.753-.3v-3.25a.627.627,0,0,0-.176-.481.963.963,0,0,0-.47-.226,3.062,3.062,0,0,0-.634-.062,2.02,2.02,0,0,0-1.245.323,1.579,1.579,0,0,0-.566.855,4.275,4.275,0,0,0-.147,1.144,2.638,2.638,0,0,0,.4,1.512A1.484,1.484,0,0,0,51.047-32.738ZM59.2-29.975a1.263,1.263,0,0,1-.306-.034,2.133,2.133,0,0,1-.226-.068v-.747a1.6,1.6,0,0,0,.2.068,1.077,1.077,0,0,0,.283.034.892.892,0,0,0,.623-.215,1.726,1.726,0,0,0,.4-.577,6.784,6.784,0,0,0,.3-.8v.328l-2.4-5.82h.928l1.88,4.823h-.17l1.868-4.823H63.4l-2.423,6.2a3.407,3.407,0,0,1-.572,1.019,1.782,1.782,0,0,1-.623.481A1.517,1.517,0,0,1,59.2-29.975Zm7.484-2.015a2.383,2.383,0,0,1-1.964-.787,3.382,3.382,0,0,1-.64-2.191,3.174,3.174,0,0,1,.674-2.208,2.456,2.456,0,0,1,1.908-.736,2.74,2.74,0,0,1,1.495.368A2.159,2.159,0,0,1,69-36.514a4.052,4.052,0,0,1,.272,1.546,3.269,3.269,0,0,1-.674,2.185A2.38,2.38,0,0,1,66.684-31.991Zm-.011-.747a1.712,1.712,0,0,0,1.076-.3,1.631,1.631,0,0,0,.549-.8,3.625,3.625,0,0,0,.164-1.127,3.566,3.566,0,0,0-.17-1.161,1.493,1.493,0,0,0-.56-.764,1.825,1.825,0,0,0-1.059-.272,1.715,1.715,0,0,0-1.064.294,1.6,1.6,0,0,0-.549.787,3.518,3.518,0,0,0-.164,1.115,2.944,2.944,0,0,0,.4,1.613A1.514,1.514,0,0,0,66.672-32.738Zm6.556.747a2.886,2.886,0,0,1-1.279-.26,1.813,1.813,0,0,1-.81-.759,2.482,2.482,0,0,1-.277-1.223v-3.578h.815v3.4a1.791,1.791,0,0,0,.379,1.262,1.541,1.541,0,0,0,1.172.4,1.541,1.541,0,0,0,1.172-.4,1.791,1.791,0,0,0,.379-1.262v-3.4h.815v3.578a2.172,2.172,0,0,1-.617,1.659A2.449,2.449,0,0,1,73.228-31.991Zm4.235-.17v-5.2q.136-.057.526-.192a7.526,7.526,0,0,1,.94-.249,5.622,5.622,0,0,1,1.138-.113.745.745,0,0,1,.181.023l.181.045v.725a4.986,4.986,0,0,0-.572-.034,4.975,4.975,0,0,0-.538.028q-.26.028-.521.074l-.521.091v4.8Zm9.262.17a3.6,3.6,0,0,1-1.025-.125,5.118,5.118,0,0,1-.855-.351v-.861q.351.193.623.328a2.382,2.382,0,0,0,.555.2,3.019,3.019,0,0,0,.645.062,1.577,1.577,0,0,0,.923-.249.756.756,0,0,0,.357-.645.646.646,0,0,0-.175-.487,1.42,1.42,0,0,0-.447-.283l-.566-.238q-.328-.091-.662-.2a2.666,2.666,0,0,1-.611-.283,1.386,1.386,0,0,1-.447-.453,1.361,1.361,0,0,1-.17-.719,1.455,1.455,0,0,1,.175-.736,1.547,1.547,0,0,1,.459-.5,1.942,1.942,0,0,1,.634-.289,2.8,2.8,0,0,1,.7-.091,2.488,2.488,0,0,1,.872.136q.362.136.747.306v.815q-.43-.226-.77-.368a2.082,2.082,0,0,0-.8-.142,1.812,1.812,0,0,0-.832.187.607.607,0,0,0-.368.572.681.681,0,0,0,.187.5,1.288,1.288,0,0,0,.493.294q.306.108.657.209.283.091.589.2a2.484,2.484,0,0,1,.566.283,1.377,1.377,0,0,1,.425.459,1.43,1.43,0,0,1,.164.725,1.559,1.559,0,0,1-.306.991,1.778,1.778,0,0,1-.776.572A2.639,2.639,0,0,1,86.725-31.991Zm5.571,0a3.671,3.671,0,0,1-.753-.079,2.263,2.263,0,0,1-.7-.272,1.482,1.482,0,0,1-.521-.526,1.632,1.632,0,0,1-.2-.844,2.1,2.1,0,0,1,.266-1.127,1.5,1.5,0,0,1,.736-.611,2.911,2.911,0,0,1,1.081-.187,4.96,4.96,0,0,1,.8.057,2.881,2.881,0,0,1,.606.164,3.012,3.012,0,0,1,.481.243l.159.747a2.4,2.4,0,0,0-.753-.334A3.9,3.9,0,0,0,92.42-34.9a1.888,1.888,0,0,0-1.1.272.909.909,0,0,0-.385.793.941.941,0,0,0,.232.668,1.259,1.259,0,0,0,.589.351,2.645,2.645,0,0,0,.73.1,4.356,4.356,0,0,0,1.115-.108.47.47,0,0,0,.379-.493v-2.593a1.155,1.155,0,0,0-.385-.962,1.729,1.729,0,0,0-1.1-.306,3.827,3.827,0,0,0-.957.13,2.338,2.338,0,0,0-.866.413v-.815a2.738,2.738,0,0,1,.94-.345,5.772,5.772,0,0,1,1.144-.119,3.053,3.053,0,0,1,.691.074,2.1,2.1,0,0,1,.566.215,1.455,1.455,0,0,1,.425.362,1.648,1.648,0,0,1,.272.51,2.053,2.053,0,0,1,.1.651v2.74a1.093,1.093,0,0,1-.357.894,1.894,1.894,0,0,1-.928.385A7.862,7.862,0,0,1,92.3-31.991Zm5.2-.17h-.815v-7.8h.815Zm4.2.17a2.776,2.776,0,0,1-1.393-.334,2.2,2.2,0,0,1-.906-1,3.874,3.874,0,0,1-.317-1.664,3.169,3.169,0,0,1,.662-2.191,2.33,2.33,0,0,1,1.817-.73,2.384,2.384,0,0,1,1.455.408,2.235,2.235,0,0,1,.787,1.1,4.6,4.6,0,0,1,.226,1.563h-4.54l.057-.747h3.952l-.317.113a1.921,1.921,0,0,0-.425-1.268,1.559,1.559,0,0,0-1.195-.419,1.886,1.886,0,0,0-.923.2,1.246,1.246,0,0,0-.549.708,4.328,4.328,0,0,0-.181,1.41,2.28,2.28,0,0,0,.481,1.568,1.722,1.722,0,0,0,1.353.538,4.417,4.417,0,0,0,.77-.062,3.5,3.5,0,0,0,.645-.175,3.349,3.349,0,0,0,.521-.249v.838a4,4,0,0,1-.9.294A5.343,5.343,0,0,1,101.693-31.991Zm5.514,0a3.6,3.6,0,0,1-1.025-.125,5.119,5.119,0,0,1-.855-.351v-.861q.351.193.623.328a2.382,2.382,0,0,0,.555.2,3.019,3.019,0,0,0,.645.062,1.577,1.577,0,0,0,.923-.249.756.756,0,0,0,.357-.645.646.646,0,0,0-.176-.487,1.42,1.42,0,0,0-.447-.283l-.566-.238q-.328-.091-.662-.2a2.666,2.666,0,0,1-.611-.283,1.386,1.386,0,0,1-.447-.453,1.361,1.361,0,0,1-.17-.719,1.455,1.455,0,0,1,.176-.736,1.546,1.546,0,0,1,.459-.5,1.941,1.941,0,0,1,.634-.289,2.8,2.8,0,0,1,.7-.091,2.488,2.488,0,0,1,.872.136q.362.136.747.306v.815q-.43-.226-.77-.368a2.082,2.082,0,0,0-.8-.142,1.812,1.812,0,0,0-.832.187.607.607,0,0,0-.368.572.681.681,0,0,0,.187.5,1.288,1.288,0,0,0,.493.294q.306.108.657.209.283.091.589.2a2.483,2.483,0,0,1,.566.283,1.377,1.377,0,0,1,.425.459,1.43,1.43,0,0,1,.164.725,1.559,1.559,0,0,1-.306.991,1.778,1.778,0,0,1-.776.572A2.639,2.639,0,0,1,107.207-31.991Z" transform="translate(-4.93 61.298)" fill="#fff"/>
  </g>
  <g id="Group_2637" data-name="Group 2637">
    <path id="Path_1340" data-name="Path 1340" d="M.6,0h11.02a.6.6,0,0,1,.6.6V23.332a.6.6,0,0,1-.6.6H.6a.6.6,0,0,1-.6-.6V.6A.6.6,0,0,1,.6,0Z" transform="matrix(0.994, -0.111, 0.111, 0.994, 0, 1.359)" fill="#fff"/>
    <path id="Path_1341" data-name="Path 1341" d="M.6,0h11.02a.6.6,0,0,1,.6.6v12.34a.6.6,0,0,1-.6.6H.6a.6.6,0,0,1-.6-.6V.6A.6.6,0,0,1,.6,0Z" transform="matrix(0.994, -0.111, 0.111, 0.994, 16.037, 10.023)" fill="#fff"/>
    <path id="Path_1343" data-name="Path 1343" d="M.6,0h11.02a.6.6,0,0,1,.6.6V17.047a.6.6,0,0,1-.6.6H.6a.6.6,0,0,1-.6-.6V.6A.6.6,0,0,1,.6,0Z" transform="matrix(0.994, -0.111, 0.111, 0.994, 30.631, 4.152)" fill="#fff"/>
    <path id="Path_1344" data-name="Path 1344" d="M.6,0h11.02a.6.6,0,0,1,.6.6V23.332a.6.6,0,0,1-.6.6H.6a.6.6,0,0,1-.6-.6V.6A.6.6,0,0,1,.6,0Z" transform="matrix(0.994, -0.111, 0.111, 0.994, 32.956, 24.931)" fill="url(#linear-gradient)"/>
    <path id="Path_1342" data-name="Path 1342" d="M.6,0h11a.6.6,0,0,1,.6.6v12.34a.6.6,0,0,1-.6.6H.6a.6.6,0,0,1-.6-.6V.6A.6.6,0,0,1,.6,0Z" transform="matrix(0.994, -0.111, 0.111, 0.994, 17.956, 26.69)" fill="url(#linear-gradient)"/>
    <path id="Path_1339" data-name="Path 1339" d="M.6,0h11.02a.6.6,0,0,1,.6.6V17.047a.6.6,0,0,1-.6.6H.6a.6.6,0,0,1-.6-.6V.6A.6.6,0,0,1,.6,0Z" transform="matrix(0.994, -0.111, 0.111, 0.994, 3.024, 28.384)" fill="url(#linear-gradient)"/>
  </g>
</svg>
